# File created by Blade
# Date/Time:  Mon Nov 18 17:26:10 2013
# Frame Rate: 100.000 fps
#------------------------------------------------------
:FULLY-SPECIFIED
:DEGREES
1
root -32.327540 -2.070554 44.048863 4.872482 1.386812 48.816210
Spine 18.345451 0.767699 0.709170
Spine1 6.685081 0.553010 2.228380
Spine2 -22.737466 1.511658 1.122402
NeckDummy 0.030073 0.318305 0.934172 14.070650 -1.506246 1.265631
Neck 1.229810 -9.646160 34.757497
Head 0.129616 0.004822 0.092153 -2.994350 0.389415 0.392740
LeftShoulderDummy 0.014358 0.352080 0.961858 14.063936 -1.565288 1.366198
LeftShoulder 6.694034 -7.544503 18.880632
LeftArm 3.102871 41.111187 21.888583
LeftForeArm 54.387949
LeftForeArmRoll 22.530252
LeftHand -33.498551 -23.318792 9.238920
LeftHandThumb1 14.260581 1.502891
LeftHandIndex1 -1.897172 36.763500
LeftHandPinky1 0.238784 57.096347
RightShoulderDummy 0.033790 0.299839 0.892548 14.060461 1.508965 -1.240377
RightShoulder 14.233223 0.236100 12.951003
RightArm -2.695560 60.878390 20.975029
RightForeArm 103.490121
RightForeArmRoll 43.418089
RightHand -41.542863 -14.518138 13.937413
RightHandThumb1 9.925902 16.795049
RightHandIndex1 12.528542 63.057696
RightHandPinky1 14.418213 73.970943
LeftUpLeg -5.834241 17.866636 -48.191318
LeftLeg 49.620261
LeftFoot 0.004217 -1.000113 -1.426424 -22.612636 8.060749 -5.141968
LeftToeBase -2.215108
RightUpLeg -10.467755 11.491834 -28.199560
RightLeg 49.802884
RightFoot -0.334774 0.656439 0.829910 -8.547779 12.923811 -24.556552
RightToeBase -1.823626
2
root -32.521158 -1.956605 43.921275 4.933290 1.692548 47.637421
Spine 18.478083 0.520714 0.816087
Spine1 6.730389 0.418542 2.420178
Spine2 -22.759565 1.501305 1.142655
NeckDummy 0.028298 0.327289 0.938585 14.040136 -1.506995 1.158450
Neck 1.297909 -9.534492 35.235277
Head 0.130247 -0.003347 0.072016 -2.732770 0.373098 0.409427
LeftShoulderDummy 0.009298 0.358934 0.967315 14.034980 -1.580496 1.289454
LeftShoulder 6.477930 -7.408139 18.637388
LeftArm 3.480493 41.228787 22.477013
LeftForeArm 54.078309
LeftForeArmRoll 22.245171
LeftHand -33.626019 -23.359784 9.246772
LeftHandThumb1 14.110608 1.836146
LeftHandIndex1 -1.766246 36.568033
LeftHandPinky1 0.289217 56.787231
RightShoulderDummy 0.030673 0.310647 0.896848 14.029478 1.513577 -1.140052
RightShoulder 14.441372 0.481143 12.765438
RightArm -3.225661 61.129663 20.151471
RightForeArm 103.308902
RightForeArmRoll 42.672087
RightHand -41.532997 -15.379183 14.357107
RightHandThumb1 10.205697 16.846666
RightHandIndex1 12.050915 63.546023
RightHandPinky1 14.147851 74.762271
LeftUpLeg -4.068913 17.606429 -47.993729
LeftLeg 52.137328
LeftFoot 0.045694 -0.991093 -1.485511 -22.704891 6.296937 -5.677034
LeftToeBase -2.472497
RightUpLeg -11.461356 11.346613 -28.657418
RightLeg 49.131192
RightFoot -0.347559 0.642525 0.820098 -8.582069 12.647558 -23.943456
RightToeBase -1.882825
3
root -32.690096 -1.842390 43.789454 4.998799 1.927503 46.375389
Spine 18.574724 0.375591 0.924009
Spine1 6.763868 0.362947 2.676622
Spine2 -22.748437 1.444497 0.984908
NeckDummy 0.027505 0.344478 0.945256 13.912472 -1.373133 0.966314
Neck 1.418842 -9.413574 35.759776
Head 0.136135 -0.018871 0.053684 -2.428945 0.429075 0.439322
LeftShoulderDummy 0.007214 0.372202 0.971713 13.908497 -1.450774 1.103499
LeftShoulder 6.397274 -7.305384 18.450323
LeftArm 3.810318 41.174115 22.887033
LeftForeArm 53.941496
LeftForeArmRoll 22.058013
LeftHand -33.750356 -23.380148 9.221856
LeftHandThumb1 14.513673 1.428144
LeftHandIndex1 -1.533436 36.655451
LeftHandPinky1 0.049054 56.469000
RightShoulderDummy 0.029391 0.331579 0.906417 13.902106 1.379912 -0.945035
RightShoulder 14.636127 0.640721 12.607013
RightArm -3.925601 61.400393 19.184911
RightForeArm 103.137075
RightForeArmRoll 42.475022
RightHand -41.679032 -15.419791 14.499265
RightHandThumb1 10.094176 16.705445
RightHandIndex1 12.228830 62.542083
RightHandPinky1 14.197338 74.330904
LeftUpLeg -2.530870 17.324867 -47.654346
LeftLeg 54.585745
LeftFoot 0.090294 -0.987237 -1.545129 -23.032147 4.613048 -6.275999
LeftToeBase -2.677114
RightUpLeg -12.451798 11.164709 -29.046047
RightLeg 48.342861
RightFoot -0.344102 0.629866 0.808956 -8.651573 12.448166 -23.335611
RightToeBase -1.937128
4
root -32.843612 -1.731557 43.655877 5.055165 2.118151 44.989375
Spine 18.675308 0.209023 0.998716
Spine1 6.780181 0.268542 2.851089
Spine2 -22.727803 1.397595 1.057814
NeckDummy 0.026570 0.362224 0.951553 13.791889 -1.425947 1.104056
Neck 1.736864 -9.606172 36.410529
Head 0.139151 -0.032773 0.028525 -2.042380 0.458806 0.460337
LeftShoulderDummy 0.005309 0.391621 0.979359 13.789491 -1.504283 1.229337
LeftShoulder 6.444880 -7.621839 18.355466
LeftArm 3.958442 40.969522 23.118002
LeftForeArm 53.832508
LeftForeArmRoll 21.567005
LeftHand -33.766886 -23.545983 9.375873
LeftHandThumb1 14.695771 1.745950
LeftHandIndex1 -1.641721 36.885000
LeftHandPinky1 -0.074082 56.890611
RightShoulderDummy 0.027628 0.346408 0.911808 13.781742 1.434998 -1.083953
RightShoulder 14.642545 1.242104 12.398352
RightArm -4.722673 61.702818 18.212128
RightForeArm 103.032919
RightForeArmRoll 42.057512
RightHand -41.792537 -15.822185 14.565153
RightHandThumb1 10.148378 16.499439
RightHandIndex1 12.050102 62.350890
RightHandPinky1 14.586357 73.927294
LeftUpLeg -1.010793 17.101886 -47.096471
LeftLeg 56.859396
LeftFoot 0.133489 -0.975538 -1.594749 -23.606598 2.932420 -6.727053
LeftToeBase -2.911438
RightUpLeg -13.440093 10.956339 -29.402205
RightLeg 47.499170
RightFoot -0.346929 0.616127 0.797548 -8.752410 12.098996 -22.707838
RightToeBase -2.114327
